<svg width="16" height="18" viewBox="0 0 16 18" fill="none" xmlns="http://www.w3.org/2000/svg">
    <path
        d="M4.66667 4.83333V11.5C4.66667 12.4205 5.41286 13.1667 6.33333 13.1667H11.3333M4.66667 4.83333V3.16667C4.66667 2.24619 5.41286 1.5 6.33333 1.5H10.1548C10.3758 1.5 10.5878 1.5878 10.7441 1.74408L14.4226 5.42259C14.5789 5.57887 14.6667 5.79083 14.6667 6.01184V11.5C14.6667 12.4205 13.9205 13.1667 13 13.1667H11.3333M4.66667 4.83333H3.33333C2.22876 4.83333 1.33333 5.72876 1.33333 6.83333V14.8333C1.33333 15.7538 2.07953 16.5 3 16.5H9.33333C10.4379 16.5 11.3333 15.6046 11.3333 14.5V13.1667"
        stroke="white" strokeWidth="2" strokeLinecap="round" strokeLinejoin="round" />
</svg>